<svg width="14" height="15" viewBox="0 0 14 15" fill="none" xmlns="http://www.w3.org/2000/svg">
<g id="Camera 1">
<path id="Vector" d="M7 10.4009C8.38071 10.4009 9.5 9.28159 9.5 7.90088C9.5 6.52017 8.38071 5.40088 7 5.40088C5.61929 5.40088 4.5 6.52017 4.5 7.90088C4.5 9.28159 5.61929 10.4009 7 10.4009Z" stroke="#BDC1CA" stroke-width="1.2" stroke-miterlimit="10" stroke-linecap="square"/>
<path id="Vector_2" d="M11.5 12.4009L2.5 12.4009C2.23478 12.4009 1.98043 12.2955 1.79289 12.108C1.60536 11.9204 1.5 11.6661 1.5 11.4009L1.5 4.90088C1.5 4.63566 1.60536 4.38131 1.79289 4.19377C1.98043 4.00624 2.23478 3.90088 2.5 3.90088L4.5 3.90088L5.5 2.40088L8.5 2.40088L9.5 3.90088L11.5 3.90088C11.7652 3.90088 12.0196 4.00624 12.2071 4.19377C12.3946 4.38131 12.5 4.63566 12.5 4.90088L12.5 11.4009C12.5 11.6661 12.3946 11.9204 12.2071 12.108C12.0196 12.2955 11.7652 12.4009 11.5 12.4009Z" stroke="#BDC1CA" stroke-width="1.2" stroke-miterlimit="10" stroke-linecap="square"/>
<path id="Vector_3" d="M3 5.90088C3.27614 5.90088 3.5 5.67702 3.5 5.40088C3.5 5.12474 3.27614 4.90088 3 4.90088C2.72386 4.90088 2.5 5.12474 2.5 5.40088C2.5 5.67702 2.72386 5.90088 3 5.90088Z" fill="#BDC1CA"/>
</g>
</svg>
